<?xml version="1.0" encoding="utf-8" standalone="no"?>
<!DOCTYPE svg PUBLIC "-//W3C//DTD SVG 1.1//EN"
  "http://www.w3.org/Graphics/SVG/1.1/DTD/svg11.dtd">
<!-- Created with matplotlib (http://matplotlib.org/) -->
<svg height="288pt" version="1.1" viewBox="0 0 432 288" width="432pt" xmlns="http://www.w3.org/2000/svg" xmlns:xlink="http://www.w3.org/1999/xlink">
 <defs>
  <style type="text/css">
*{stroke-linecap:butt;stroke-linejoin:round;stroke-miterlimit:100000;}
  </style>
 </defs>
 <g id="figure_1">
  <g id="patch_1">
   <path d="M 0 288 
L 432 288 
L 432 0 
L 0 0 
z
" style="fill:#b5afb5;"/>
  </g>
  <g id="axes_1">
   <g id="patch_2">
    <path clip-path="url(#p68391c0b0e)" d="M 222.021875 185.137647 
C 226.293049 185.137647 230.389862 183.440692 233.410038 180.420516 
C 236.430214 177.40034 238.127169 173.303527 238.127169 169.032353 
C 238.127169 164.761179 236.430214 160.664366 233.410038 157.64419 
C 230.389862 154.624014 226.293049 152.927059 222.021875 152.927059 
C 217.750701 152.927059 213.653888 154.624014 210.633712 157.64419 
C 207.613536 160.664366 205.916581 164.761179 205.916581 169.032353 
C 205.916581 173.303527 207.613536 177.40034 210.633712 180.420516 
C 213.653888 183.440692 217.750701 185.137647 222.021875 185.137647 
z
" style="opacity:0.5;stroke:#000000;stroke-linejoin:miter;"/>
   </g>
   <g id="patch_3">
    <path clip-path="url(#p68391c0b0e)" d="M 222.021875 233.746353 
C 226.293049 233.746353 230.389862 232.049398 233.410038 229.029222 
C 236.430214 226.009045 238.127169 221.912233 238.127169 217.641059 
C 238.127169 213.369885 236.430214 209.273072 233.410038 206.252896 
C 230.389862 203.23272 226.293049 201.535765 222.021875 201.535765 
C 217.750701 201.535765 213.653888 203.23272 210.633712 206.252896 
C 207.613536 209.273072 205.916581 213.369885 205.916581 217.641059 
C 205.916581 221.912233 207.613536 226.009045 210.633712 229.029222 
C 213.653888 232.049398 217.750701 233.746353 222.021875 233.746353 
z
" style="opacity:0.5;stroke:#000000;stroke-linejoin:miter;"/>
   </g>
   <g id="patch_4">
    <path clip-path="url(#p68391c0b0e)" d="M 222.021875 170.967038 
C 226.293049 170.967038 230.389862 169.270083 233.410038 166.249907 
C 236.430214 163.229731 238.127169 159.132918 238.127169 154.861744 
C 238.127169 150.59057 236.430214 146.493757 233.410038 143.473581 
C 230.389862 140.453405 226.293049 138.75645 222.021875 138.75645 
C 217.750701 138.75645 213.653888 140.453405 210.633712 143.473581 
C 207.613536 146.493757 205.916581 150.59057 205.916581 154.861744 
C 205.916581 159.132918 207.613536 163.229731 210.633712 166.249907 
C 213.653888 169.270083 217.750701 170.967038 222.021875 170.967038 
z
" style="opacity:0.5;stroke:#000000;stroke-linejoin:miter;"/>
   </g>
   <g id="patch_5">
    <path clip-path="url(#p68391c0b0e)" d="M 222.021875 122.651145 
C 226.293049 122.651145 230.389862 120.954189 233.410038 117.934013 
C 236.430214 114.913837 238.127169 110.817025 238.127169 106.545851 
C 238.127169 102.274677 236.430214 98.177864 233.410038 95.157688 
C 230.389862 92.137512 226.293049 90.440557 222.021875 90.440557 
C 217.750701 90.440557 213.653888 92.137512 210.633712 95.157688 
C 207.613536 98.177864 205.916581 102.274677 205.916581 106.545851 
C 205.916581 110.817025 207.613536 114.913837 210.633712 117.934013 
C 213.653888 120.954189 217.750701 122.651145 222.021875 122.651145 
z
" style="opacity:0.5;stroke:#000000;stroke-linejoin:miter;"/>
   </g>
   <g id="line2d_1">
    <path clip-path="url(#p68391c0b0e)" d="M 222.021875 169.032353 
L 222.021875 217.641059 
" style="fill:none;opacity:0.5;stroke:#000000;stroke-linecap:round;stroke-width:20.0;"/>
   </g>
   <g id="line2d_2">
    <path clip-path="url(#p68391c0b0e)" d="M 222.021875 217.641059 
L 222.021875 154.861744 
" style="fill:none;opacity:0.5;stroke:#000000;stroke-linecap:round;stroke-width:20.0;"/>
   </g>
   <g id="line2d_3">
    <path clip-path="url(#p68391c0b0e)" d="M 222.021875 154.861744 
L 222.021875 106.545851 
" style="fill:none;opacity:0.5;stroke:#000000;stroke-linecap:round;stroke-width:20.0;"/>
   </g>
  </g>
 </g>
 <defs>
  <clipPath id="p68391c0b0e">
   <rect height="248.9" width="366.029411765" x="39.0071691176" y="15.3"/>
  </clipPath>
 </defs>
</svg>
