<?xml version="1.0" encoding="utf-8" standalone="no"?>
<!DOCTYPE svg PUBLIC "-//W3C//DTD SVG 1.1//EN"
  "http://www.w3.org/Graphics/SVG/1.1/DTD/svg11.dtd">
<!-- Created with matplotlib (http://matplotlib.org/) -->
<svg height="288pt" version="1.1" viewBox="0 0 432 288" width="432pt" xmlns="http://www.w3.org/2000/svg" xmlns:xlink="http://www.w3.org/1999/xlink">
 <defs>
  <style type="text/css">
*{stroke-linecap:butt;stroke-linejoin:round;stroke-miterlimit:100000;}
  </style>
 </defs>
 <g id="figure_1">
  <g id="patch_1">
   <path d="M 0 288 
L 432 288 
L 432 0 
L 0 0 
z
" style="fill:#b5afb5;"/>
  </g>
  <g id="axes_1">
   <g id="patch_2">
    <path clip-path="url(#pd48095654b)" d="M 192.739522 185.137647 
C 197.010696 185.137647 201.107509 183.440692 204.127685 180.420516 
C 207.147861 177.40034 208.844816 173.303527 208.844816 169.032353 
C 208.844816 164.761179 207.147861 160.664366 204.127685 157.64419 
C 201.107509 154.624014 197.010696 152.927059 192.739522 152.927059 
C 188.468348 152.927059 184.371535 154.624014 181.351359 157.64419 
C 178.331183 160.664366 176.634228 164.761179 176.634228 169.032353 
C 176.634228 173.303527 178.331183 177.40034 181.351359 180.420516 
C 184.371535 183.440692 188.468348 185.137647 192.739522 185.137647 
z
" style="opacity:0.5;stroke:#000000;stroke-linejoin:miter;"/>
   </g>
   <g id="patch_3">
    <path clip-path="url(#pd48095654b)" d="M 144.130816 185.137647 
C 148.40199 185.137647 152.498803 183.440692 155.518979 180.420516 
C 158.539155 177.40034 160.23611 173.303527 160.23611 169.032353 
C 160.23611 164.761179 158.539155 160.664366 155.518979 157.64419 
C 152.498803 154.624014 148.40199 152.927059 144.130816 152.927059 
C 139.859642 152.927059 135.76283 154.624014 132.742653 157.64419 
C 129.722477 160.664366 128.025522 164.761179 128.025522 169.032353 
C 128.025522 173.303527 129.722477 177.40034 132.742653 180.420516 
C 135.76283 183.440692 139.859642 185.137647 144.130816 185.137647 
z
" style="opacity:0.5;stroke:#000000;stroke-linejoin:miter;"/>
   </g>
   <g id="patch_4">
    <path clip-path="url(#pd48095654b)" d="M 206.910131 176.314581 
C 211.181305 176.314581 215.278118 174.617626 218.298294 171.59745 
C 221.31847 168.577274 223.015425 164.480461 223.015425 160.209287 
C 223.015425 155.938113 221.31847 151.841301 218.298294 148.821124 
C 215.278118 145.800948 211.181305 144.103993 206.910131 144.103993 
C 202.638957 144.103993 198.542144 145.800948 195.521968 148.821124 
C 192.501792 151.841301 190.804837 155.938113 190.804837 160.209287 
C 190.804837 164.480461 192.501792 168.577274 195.521968 171.59745 
C 198.542144 174.617626 202.638957 176.314581 206.910131 176.314581 
z
" style="opacity:0.5;stroke:#000000;stroke-linejoin:miter;"/>
   </g>
   <g id="patch_5">
    <path clip-path="url(#pd48095654b)" d="M 255.226024 176.314588 
C 259.497198 176.314588 263.594011 174.617633 266.614187 171.597457 
C 269.634363 168.577281 271.331318 164.480468 271.331318 160.209294 
C 271.331318 155.93812 269.634363 151.841307 266.614187 148.821131 
C 263.594011 145.800955 259.497198 144.104 255.226024 144.104 
C 250.95485 144.104 246.858038 145.800955 243.837862 148.821131 
C 240.817686 151.841307 239.12073 155.93812 239.12073 160.209294 
C 239.12073 164.480468 240.817686 168.577281 243.837862 171.597457 
C 246.858038 174.617633 250.95485 176.314588 255.226024 176.314588 
z
" style="opacity:0.5;stroke:#000000;stroke-linejoin:miter;"/>
   </g>
   <g id="line2d_1">
    <path clip-path="url(#pd48095654b)" d="M 192.739522 169.032353 
L 144.130816 169.032353 
" style="fill:none;opacity:0.5;stroke:#000000;stroke-linecap:round;stroke-width:20.0;"/>
   </g>
   <g id="line2d_2">
    <path clip-path="url(#pd48095654b)" d="M 144.130816 169.032353 
L 152.953882 160.209287 
" style="fill:none;opacity:0.5;stroke:#000000;stroke-linecap:round;stroke-width:20.0;"/>
   </g>
   <g id="line2d_3">
    <path clip-path="url(#pd48095654b)" d="M 152.953882 160.209287 
L 206.910131 160.209287 
" style="fill:none;opacity:0.5;stroke:#000000;stroke-linecap:round;stroke-width:20.0;"/>
   </g>
   <g id="line2d_4">
    <path clip-path="url(#pd48095654b)" d="M 206.910131 160.209287 
L 255.226024 160.209294 
" style="fill:none;opacity:0.5;stroke:#000000;stroke-linecap:round;stroke-width:20.0;"/>
   </g>
  </g>
 </g>
 <defs>
  <clipPath id="pd48095654b">
   <rect height="248.9" width="366.029411765" x="39.0071691176" y="15.3"/>
  </clipPath>
 </defs>
</svg>
